<svg width="298" height="38" viewBox="0 0 298 38" fill="none" xmlns="http://www.w3.org/2000/svg">
<g clip-path="url(#clip0_10_63)">
<path d="M46.734 0.173005C49.4971 0.173005 52.2645 0.0605657 55.0233 0.194627C63.8958 0.627084 68.6599 8.42428 66.2417 16.7923C65.5136 19.3049 63.9214 21.1991 61.6564 22.4964C59.8129 23.556 59.8172 23.5733 61.005 25.4198C62.8655 28.3087 64.7388 31.1888 66.6036 34.0733C66.8377 34.4323 67.0974 34.7825 67.2805 35.1674C67.9745 36.6075 67.3784 37.8184 65.8159 37.9308C64.3343 38.0389 62.84 37.9481 61.3541 37.9654C60.26 37.9784 59.7491 37.2389 59.2424 36.4172C57.1691 33.07 55.0233 29.766 53.0095 26.3842C52.3283 25.2425 51.5279 24.8231 50.255 24.8879C48.4157 24.9787 46.568 24.9787 44.7288 24.9009C43.4643 24.8447 42.9577 25.2296 43.0003 26.5961C43.0897 29.472 43.0343 32.3521 43.0216 35.228C43.013 37.5373 42.5916 37.9438 40.2585 37.9784C37.2045 38.0274 35.6746 36.4994 35.6689 33.3944C35.6689 29.1476 35.6689 24.9052 35.6732 20.6585C35.6775 17.8345 36.0479 17.4713 38.9131 17.467C43.5197 17.4583 48.1262 17.4929 52.7328 17.4367C53.9206 17.4237 55.1553 17.2767 56.2878 16.9307C58.0333 16.3945 59.1871 15.2225 59.3148 13.2159C59.451 11.0969 58.8933 9.28487 56.9093 8.37671C55.7854 7.86209 54.4741 7.58099 53.2394 7.55937C48.42 7.46855 43.6006 7.5291 38.7811 7.5118C36.1287 7.50315 35.7073 7.05772 35.6817 4.36784C35.6533 1.51074 37.0696 0.0850716 39.9307 0.0908377C42.1999 0.0908377 44.4648 0.0908377 46.734 0.0908377C46.734 0.116785 46.734 0.142733 46.734 0.16868V0.173005Z" fill="#027EF0"/>
<path d="M10.567 0.198807C13.3301 0.198807 16.1059 0.0301491 18.8563 0.233404C23.846 0.605317 27.8012 2.97951 29.568 7.81005C31.3944 12.8049 30.9304 17.7436 27.1966 21.9081C24.9785 24.3818 22.0579 25.4802 18.852 25.6489C15.6717 25.8176 12.4743 25.7354 9.28552 25.783C7.42927 25.8089 7.40798 25.8262 7.39095 27.729C7.36541 30.3194 7.39521 32.9099 7.36115 35.5003C7.33561 37.4593 6.88006 37.9177 4.98124 37.9739C3.98925 37.9999 2.99301 38.0128 2.00528 37.9437C0.638642 37.8442 0.0553721 37.3079 0.0425998 35.9241C-0.00423214 30.8168 -0.012747 25.7051 0.0340849 20.5978C0.0468572 18.9891 0.719534 18.4615 2.55875 18.4528C7.09719 18.4269 11.6314 18.4615 16.1698 18.4398C17.0852 18.4355 18.0175 18.3793 18.9116 18.1977C21.7215 17.6312 23.0115 15.9921 23.0456 13.0687C23.0796 10.0718 21.7258 8.28143 18.8903 7.68896C18.1367 7.53328 17.3406 7.52463 16.5658 7.52463C12.0997 7.50733 7.63363 7.52463 3.16757 7.51166C0.468344 7.51166 0.02557 7.0619 0.0085402 4.43256C-0.0113279 1.50915 1.45181 0.0560965 4.39797 0.0733948C5.46233 0.082044 6.52669 0.082044 7.5868 0.0863685C8.57878 0.0863685 9.57077 0.0863685 10.5628 0.0863685C10.5628 0.120965 10.5628 0.159886 10.5628 0.194483L10.567 0.198807Z" fill="#027EF0"/>
<path d="M182.355 18.9674C182.355 24.1482 182.355 29.329 182.355 34.5056C182.355 37.1479 181.98 37.5328 179.439 37.5501C178.732 37.5544 178.021 37.5674 177.314 37.5328C175.556 37.4506 175.075 36.9792 175.058 35.1586C175.024 31.5605 175.058 27.9625 175.036 24.3688C175.028 22.6043 175.002 22.5741 173.291 22.5654C169.182 22.5481 165.07 22.5481 160.961 22.5697C159.177 22.5784 159.156 22.613 159.143 24.5504C159.126 27.7895 159.148 31.0243 159.122 34.2634C159.118 34.9726 159.071 35.7121 158.871 36.3824C158.5 37.6322 157.402 37.6538 156.414 37.5241C154.894 37.3295 153.076 38.3501 151.948 36.5078C151.74 36.1705 151.71 35.6818 151.71 35.2624C151.697 29.3636 151.684 23.4649 151.723 17.5619C151.735 15.6591 152.37 15.0969 154.396 15.0882C160.561 15.0666 166.726 15.0839 172.895 15.0753C175.028 15.0753 175.036 15.0623 175.045 12.8178C175.053 9.43602 175.032 6.05421 175.058 2.6724C175.07 0.605251 175.53 0.164145 177.565 0.086303C182.244 -0.0910043 182.338 -0.00451289 182.342 4.71359C182.351 9.46197 182.342 14.2103 182.342 18.9587H182.363L182.355 18.9674Z" fill="#027EF0"/>
<path d="M125.991 0.211885C128.686 0.211885 131.389 0.0432271 134.067 0.246482C139.065 0.627044 142.94 3.01853 144.685 7.90097C146.507 12.9823 145.877 17.8475 142.024 21.9083C139.908 24.1354 137.162 25.143 134.186 25.3074C131.074 25.4803 127.953 25.4068 124.833 25.4501C122.789 25.476 122.776 25.4847 122.764 27.634C122.747 29.939 122.764 32.2397 122.751 34.5446C122.738 37.1524 122.402 37.481 119.758 37.4854C119.047 37.4854 118.336 37.5113 117.633 37.4637C116.156 37.3643 115.488 36.815 115.471 35.3706C115.415 30.406 115.411 25.4371 115.471 20.4725C115.492 18.7946 116.254 18.2021 118.157 18.1891C122.483 18.1632 126.808 18.1891 131.13 18.1761C132.121 18.1761 133.122 18.1545 134.097 18.0032C136.698 17.5967 138.12 15.8409 138.201 13.0602C138.286 10.2276 137.039 8.33775 134.548 7.72366C133.667 7.50744 132.722 7.47716 131.806 7.47284C127.553 7.44689 123.3 7.47284 119.047 7.45987C115.926 7.45122 115.449 6.95821 115.445 3.87047C115.445 3.43801 115.428 3.00556 115.445 2.5731C115.53 0.726509 116.079 0.129718 117.91 0.0994465C120.605 0.0562008 123.3 0.0864728 125.991 0.0864728C125.991 0.129718 125.991 0.172964 125.991 0.21621V0.211885Z" fill="#027EF0"/>
<path d="M91.5011 0.0947266C100.259 0.0947266 107.922 6.17507 109.817 14.6339C111.788 23.4301 107.701 32.1744 99.7648 36.0751C99.0793 36.4125 98.3173 36.5768 97.5892 36.8233C98.147 36.3908 98.6834 35.9238 99.2667 35.5303C104.648 31.9106 106.845 25.4843 104.801 19.2742C102.783 13.1463 96.9166 9.22822 90.4495 9.6996C84.289 10.145 79.031 14.8329 77.873 21.0473C76.8001 26.8335 78.7415 31.4998 83.2629 35.1021C83.71 35.4567 84.1911 35.7638 84.6466 36.1011C84.7445 36.1746 84.8041 36.3 84.8808 36.3995C84.7488 36.4341 84.5955 36.5292 84.4891 36.4903C83.9569 36.2957 83.4205 36.1054 82.9181 35.8416C75.2589 31.85 71.2867 23.0322 73.3133 14.5518C75.3356 6.13615 82.9266 0.0990511 91.5011 0.0947266Z" fill="#027EF0"/>
<path d="M224.597 19.1057C224.704 13.1854 226.581 8.08668 230.975 4.08213C232.968 2.26581 235.309 1.10683 237.911 0.488412C239.741 0.0516301 240.546 0.691667 240.661 2.64205C240.691 3.1437 240.61 3.65832 240.678 4.15132C240.989 6.32226 240.133 7.46827 238.085 8.3894C233.593 10.409 231.984 14.4654 232.074 19.1533C232.167 24.1611 233.943 28.304 239.03 30.1506C240.201 30.5744 240.699 31.3831 240.669 32.6113C240.648 33.5454 240.699 34.4839 240.657 35.418C240.563 37.4592 239.682 38.1295 237.757 37.5932C231.052 35.7077 227.033 31.1496 225.326 24.4292C224.887 22.7081 224.827 20.8831 224.593 19.11L224.597 19.1057Z" fill="#027EF0"/>
<path d="M276.453 28.6111C276.453 26.5959 276.343 24.5763 276.496 22.574C276.577 21.4886 276.883 20.282 277.471 19.3955C281.443 13.4492 285.543 7.58508 289.549 1.66042C290.307 0.540352 291.167 -0.0391402 292.534 0.068974C293.73 0.164115 294.948 0.0214038 296.144 0.120869C297.821 0.26358 298.46 1.50473 297.651 3.00968C297.213 3.82703 296.655 4.5795 296.127 5.34495C292.406 10.7723 288.698 16.2083 284.947 21.6097C284.223 22.6519 283.878 23.7027 283.904 25.0001C283.976 28.3776 283.951 31.7594 283.921 35.1412C283.904 37.3943 283.376 37.8873 281.115 37.9176C280.336 37.9263 279.557 37.9436 278.778 37.9003C277.053 37.8008 276.504 37.2689 276.466 35.5132C276.415 33.2125 276.453 30.9118 276.453 28.6111Z" fill="#027EF0"/>
<path d="M100.94 28.1357C100.846 32.6289 98.7303 35.3231 95.4734 37.2432C95.1072 37.4594 94.558 37.3643 94.0939 37.4162C94.3494 37.1135 94.5921 36.8064 94.856 36.5167C96.3802 34.8258 96.6399 32.8321 95.584 30.9596C94.6602 29.3206 92.7528 28.3951 90.8838 28.6806C88.819 28.9962 87.2863 30.5228 86.984 32.6765C86.7584 34.2852 87.3289 35.6301 88.5337 36.7113C88.7296 36.8843 88.8615 37.1264 89.0276 37.3383C88.7253 37.3556 88.3719 37.4897 88.125 37.3773C81.4366 34.3587 80.3083 26.2501 85.1831 21.5493C87.9547 18.8768 91.9865 18.1848 95.4563 19.8455C99.0794 21.5796 100.799 24.6025 100.936 28.14L100.94 28.1357Z" fill="#027EF0"/>
<path d="M205.665 0.0862135C209.42 0.0862135 213.175 0.0732398 216.93 0.0905381C219.237 0.0991872 219.65 0.535969 219.697 2.85826C219.786 7.48123 219.752 7.51582 215.142 7.51582C208.338 7.51582 201.539 7.52447 194.736 7.51582C191.943 7.51582 191.517 7.07039 191.487 4.28105C191.445 0.280819 191.623 0.0905381 195.464 0.0948626C198.865 0.0948626 202.267 0.0948626 205.665 0.0948626V0.0862135Z" fill="#027EF0"/>
<path d="M205.843 30.2069C209.526 30.2069 213.204 30.1939 216.887 30.2069C219.156 30.2155 219.654 30.7215 219.688 32.953C219.737 36.0206 218.225 37.5529 215.154 37.55C208.5 37.55 201.846 37.55 195.191 37.55C194.625 37.55 194.059 37.5673 193.492 37.5241C193.148 37.4981 192.709 37.4938 192.479 37.2905C190.721 35.738 191.589 33.6838 191.628 31.8416C191.657 30.5053 192.786 30.1982 193.952 30.1982C197.916 30.2026 201.88 30.1982 205.848 30.1982L205.843 30.2069Z" fill="#027EF0"/>
<path d="M204.357 15.088C207.827 15.088 211.297 15.0664 214.763 15.0967C216.972 15.114 217.483 15.6675 217.517 17.9163C217.59 22.5306 217.573 22.5523 212.932 22.5566C206.771 22.5609 200.615 22.5652 194.455 22.5566C191.96 22.5566 191.53 22.0982 191.474 19.5164C191.385 15.3129 191.589 15.0924 195.647 15.0924C198.55 15.0924 201.454 15.0924 204.353 15.0924L204.357 15.088Z" fill="#027EF0"/>
<path d="M255.587 24.0836C256.498 24.0836 257.214 24.01 257.908 24.1009C259.249 24.2738 259.926 25.2685 259.496 26.5269C257.35 32.8105 252.322 36.8108 246.259 37.8876C244.62 38.1773 243.867 37.5287 243.675 35.8767C243.62 35.3793 243.654 34.8734 243.654 34.3717C243.654 31.271 243.666 31.1932 246.553 30.3153C248.694 29.6623 250.47 28.4038 251.428 26.4491C252.411 24.4468 253.697 23.6511 255.587 24.0836Z" fill="#027EF0"/>
<path d="M255.903 14.046C255.409 14.046 254.911 14.0114 254.421 14.0546C253.305 14.1454 252.526 13.7303 252.041 12.6751C250.755 9.88574 248.571 8.22078 245.634 7.54615C244.229 7.22613 243.65 6.30067 243.658 4.90383C243.662 4.04325 243.616 3.17833 243.679 2.32207C243.82 0.462501 244.625 -0.142938 246.566 0.27222C251.828 1.40526 255.89 4.24218 258.436 9.13327C258.798 9.82952 259.125 10.5517 259.394 11.2869C259.99 12.9216 259.347 13.8946 257.597 14.0287C257.035 14.0719 256.469 14.0373 255.903 14.0373V14.0503V14.046Z" fill="#027EF0"/>
<path d="M272.515 13.1726C270.395 13.7693 268.917 12.5541 267.678 10.4783C266.248 8.08254 264.575 5.83808 262.982 3.54606C262.476 2.81089 262.029 2.09733 262.467 1.17187C262.953 0.159924 263.864 0.0993798 264.817 0.0604587C267.965 -0.0692784 270.439 1.17476 272.238 3.79256C273.537 5.67808 274.857 7.55061 276.134 9.45343C276.683 10.2751 277.334 11.0968 276.768 12.2168C276.181 13.3758 275.125 13.1336 274.158 13.1682C273.733 13.1812 273.307 13.1682 272.515 13.1682V13.1726Z" fill="#027EF0"/>
<path d="M159.109 6.67267C159.109 8.03924 159.173 9.41013 159.092 10.7767C158.994 12.4719 158.36 13.0471 156.687 13.112C155.767 13.1466 154.843 13.1509 153.924 13.112C152.468 13.0471 151.765 12.4719 151.727 11.0535C151.65 8.10411 151.646 5.15042 151.718 2.20107C151.753 0.730713 152.374 0.198791 153.881 0.107975C154.869 0.0474313 155.869 0.0474313 156.857 0.103651C158.432 0.190142 159.016 0.748012 159.097 2.36108C159.169 3.79683 159.114 5.24124 159.114 6.677L159.109 6.67267Z" fill="#027EF0"/>
</g>
<defs>
<clipPath id="clip0_10_63">
<rect width="298" height="38" fill="white"/>
</clipPath>
</defs>
</svg>
