<svg width="1919" height="1782" viewBox="0 0 1919 1782" fill="none" xmlns="http://www.w3.org/2000/svg">
<g clip-path="url(#clip0_67_1227)">
<rect width="1919" height="1782" rx="33.4709" fill="white"/>
<path d="M857.693 -174.328V77.7816C857.693 98.8806 850.218 119.298 836.596 135.409L782.561 199.319C768.938 215.431 761.464 235.848 761.464 256.947V400.256" stroke="url(#paint0_linear_67_1227)" stroke-width="1.39462" stroke-linecap="round"/>
<path d="M1058.52 -174.328V77.7816C1058.52 98.8806 1065.99 119.298 1079.62 135.409L1133.65 199.319C1147.27 215.431 1154.75 235.848 1154.75 256.947V400.256" stroke="url(#paint1_linear_67_1227)" stroke-width="1.39462" stroke-linecap="round"/>
<g filter="url(#filter0_f_67_1227)">
<ellipse cx="2066.35" cy="1366.96" rx="402.348" ry="476.961" fill="#A6A3EF"/>
</g>
<g filter="url(#filter1_f_67_1227)">
<ellipse cx="2010.35" cy="958.961" rx="402.348" ry="476.961" fill="#4471FF"/>
</g>
<g filter="url(#filter2_f_67_1227)">
<ellipse cx="510.348" cy="1216.96" rx="402.348" ry="476.961" fill="#3061FF"/>
</g>
<g filter="url(#filter3_f_67_1227)">
<ellipse cx="2197.35" cy="2004.96" rx="402.348" ry="476.961" fill="#99B0FA"/>
</g>
</g>
<rect x="0.5" y="0.5" width="1918" height="1781" rx="32.9709" stroke="#3C5FD0"/>
<defs>
<filter id="filter0_f_67_1227" x="966.689" y="192.689" width="2199.32" height="2348.54" filterUnits="userSpaceOnUse" color-interpolation-filters="sRGB">
<feFlood flood-opacity="0" result="BackgroundImageFix"/>
<feBlend mode="normal" in="SourceGraphic" in2="BackgroundImageFix" result="shape"/>
<feGaussianBlur stdDeviation="348.656" result="effect1_foregroundBlur_67_1227"/>
</filter>
<filter id="filter1_f_67_1227" x="910.689" y="-215.311" width="2199.32" height="2348.54" filterUnits="userSpaceOnUse" color-interpolation-filters="sRGB">
<feFlood flood-opacity="0" result="BackgroundImageFix"/>
<feBlend mode="normal" in="SourceGraphic" in2="BackgroundImageFix" result="shape"/>
<feGaussianBlur stdDeviation="348.656" result="effect1_foregroundBlur_67_1227"/>
</filter>
<filter id="filter2_f_67_1227" x="-589.311" y="42.6889" width="2199.32" height="2348.54" filterUnits="userSpaceOnUse" color-interpolation-filters="sRGB">
<feFlood flood-opacity="0" result="BackgroundImageFix"/>
<feBlend mode="normal" in="SourceGraphic" in2="BackgroundImageFix" result="shape"/>
<feGaussianBlur stdDeviation="348.656" result="effect1_foregroundBlur_67_1227"/>
</filter>
<filter id="filter3_f_67_1227" x="1097.69" y="830.689" width="2199.32" height="2348.54" filterUnits="userSpaceOnUse" color-interpolation-filters="sRGB">
<feFlood flood-opacity="0" result="BackgroundImageFix"/>
<feBlend mode="normal" in="SourceGraphic" in2="BackgroundImageFix" result="shape"/>
<feGaussianBlur stdDeviation="348.656" result="effect1_foregroundBlur_67_1227"/>
</filter>
<linearGradient id="paint0_linear_67_1227" x1="809.578" y1="-174.328" x2="809.578" y2="400.256" gradientUnits="userSpaceOnUse">
<stop stop-color="white"/>
<stop offset="1" stop-color="white" stop-opacity="0"/>
</linearGradient>
<linearGradient id="paint1_linear_67_1227" x1="1106.63" y1="-174.328" x2="1106.63" y2="400.256" gradientUnits="userSpaceOnUse">
<stop stop-color="white"/>
<stop offset="1" stop-color="white" stop-opacity="0"/>
</linearGradient>
<clipPath id="clip0_67_1227">
<rect width="1919" height="1782" rx="33.4709" fill="white"/>
</clipPath>
</defs>
</svg>
