<svg width="1016" height="1016" viewBox="0 0 1016 1016" fill="none" xmlns="http://www.w3.org/2000/svg">
<path opacity="0.4" fill-rule="evenodd" clip-rule="evenodd" d="M94.0775 846.669V919.748H0V921.928H94.0775L94.0775 1016H96.2575L96.2575 921.928H169.336V1016H171.516V921.928H244.594V1016H246.774V921.928H319.861V1016H322.041V921.928H395.119V1016H397.299V921.928H470.377V1016H472.557V921.928L545.636 921.928V1016H547.816V921.928H620.887V1016H623.067V921.928H696.153V1016H698.333V921.928H771.411V1016H773.591V921.928H846.663V1016H848.843V921.928H921.928V1016H924.108V921.928H1016V919.748H924.108V846.669H1016V844.489H924.108V771.411H1016V769.231H924.108V696.149H1016V693.969H924.108V620.89H1016V618.71H924.108V545.628H1016V543.448H924.108V470.373H1016V468.193H924.108V395.115H1016V392.935H924.108V319.853H1016V317.673H924.108V244.598H1016V242.418H924.108V169.34H1016V167.16H924.108V94.0753L1016 94.0753V91.8953L924.108 91.8953V0H921.928V91.8953H848.843V0H846.663V91.8953H773.591V0H771.411V91.8953L698.333 91.8954V0H696.153V91.8954H623.067V0H620.887V91.8954L547.816 91.8954V0H545.636V91.8954H472.557L472.557 0H470.377L470.377 91.8954L397.299 91.8954L397.299 0H395.119L395.119 91.8954H322.041L322.041 0H319.861L319.861 91.8954L246.774 91.8954L246.774 0H244.594L244.594 91.8954H171.516L171.516 0H169.336L169.336 91.8954H96.2575L96.2575 0H94.0775L94.0775 91.8954L0 91.8954V94.0754L94.0775 94.0754V167.16H0V169.34H94.0775L94.0775 242.418H0V244.598H94.0775V317.673H0V319.853H94.0775L94.0775 392.935H0V395.115H94.0775V468.193H0V470.373H94.0775L94.0775 543.448H0V545.628H94.0775V618.71H0V620.89H94.0775L94.0775 693.969H0V696.149H94.0775V769.231H0V771.411H94.0775V844.489H0V846.669H94.0775ZM96.2575 94.0754V167.16L169.336 167.16V94.0754H96.2575ZM171.516 94.0754V167.16H244.594V94.0754H171.516ZM246.774 94.0754V167.16H319.861V94.0754L246.774 94.0754ZM322.041 94.0754V167.16H395.119V94.0754H322.041ZM397.299 94.0754V167.16H470.377V94.0754L397.299 94.0754ZM472.557 94.0754V167.16L545.636 167.16V94.0754H472.557ZM547.816 94.0754V167.16H620.887V94.0753L547.816 94.0754ZM623.067 94.0753V167.16H696.153V94.0753H623.067ZM698.333 94.0753V167.16H771.411V94.0753L698.333 94.0753ZM773.591 94.0753V167.16H846.663V94.0753H773.591ZM848.843 94.0753V167.16H921.928V94.0753H848.843ZM848.843 169.34H921.928V242.418H848.843V169.34ZM773.591 169.34H846.663V242.418H773.591V169.34ZM698.333 169.34H771.411V242.418H698.333V169.34ZM623.067 169.34H696.153V242.418H623.067V169.34ZM547.816 169.34H620.887V242.418H547.816V169.34ZM472.557 169.34L545.636 169.34V242.418L472.557 242.418L472.557 169.34ZM397.299 169.34H470.377L470.377 242.418H397.299L397.299 169.34ZM322.041 169.34H395.119L395.119 242.418H322.041L322.041 169.34ZM246.774 169.34H319.861L319.861 242.418H246.774L246.774 169.34ZM171.516 169.34H244.594L244.594 242.418H171.516L171.516 169.34ZM96.2575 169.34L169.336 169.34L169.336 242.418L96.2575 242.418L96.2575 169.34ZM96.2575 244.598V317.673H169.336V244.598L96.2575 244.598ZM171.516 244.598V317.673H244.594V244.598H171.516ZM246.774 244.598V317.673L319.861 317.673V244.598H246.774ZM322.041 244.598V317.673H395.119V244.598H322.041ZM397.299 244.598V317.673H470.377V244.598H397.299ZM472.557 244.598V317.673H545.636V244.598L472.557 244.598ZM547.816 244.598V317.673H620.887V244.598H547.816ZM623.067 244.598V317.673H696.153V244.598H623.067ZM698.333 244.598V317.673L771.411 317.673V244.598H698.333ZM773.591 244.598V317.673H846.663V244.598H773.591ZM848.843 244.598V317.673H921.928V244.598H848.843ZM848.843 319.853H921.928V392.935H848.843V319.853ZM773.591 319.853H846.663V392.935H773.591V319.853ZM698.333 319.853H771.411V392.935L698.333 392.935V319.853ZM623.067 319.853H696.153V392.935H623.067V319.853ZM547.816 319.853H620.887V392.935H547.816V319.853ZM472.557 319.853L545.636 319.853V392.935H472.557V319.853ZM397.299 319.853H470.377V392.935H397.299V319.853ZM322.041 319.853H395.119V392.935H322.041V319.853ZM246.774 319.853H319.861V392.935L246.774 392.935L246.774 319.853ZM171.516 319.853H244.594V392.935H171.516L171.516 319.853ZM96.2575 319.853H169.336L169.336 392.935H96.2575L96.2575 319.853ZM96.2575 395.115V468.193H169.336V395.115H96.2575ZM171.516 395.115V468.193H244.594V395.115H171.516ZM246.774 395.115V468.193L319.861 468.193V395.115H246.774ZM322.041 395.115V468.193H395.119V395.115H322.041ZM397.299 395.115V468.193H470.377V395.115H397.299ZM472.557 395.115V468.193H545.636V395.115L472.557 395.115ZM547.816 395.115V468.193H620.887V395.115H547.816ZM623.067 395.115V468.193H696.153V395.115H623.067ZM698.333 395.115V468.193L771.411 468.193V395.115H698.333ZM773.591 395.115V468.193H846.663V395.115H773.591ZM848.843 395.115V468.193H921.928V395.115H848.843ZM848.843 470.373H921.928V543.448H848.843V470.373ZM773.591 470.373H846.663V543.448H773.591V470.373ZM698.333 470.373H771.411V543.448H698.333V470.373ZM623.067 470.373H696.153V543.448H623.067V470.373ZM547.816 470.373H620.887V543.448H547.816V470.373ZM472.557 470.373L545.636 470.373V543.448L472.557 543.448V470.373ZM397.299 470.373H470.377V543.448H397.299V470.373ZM322.041 470.373H395.119V543.448H322.041V470.373ZM246.774 470.373H319.861V543.448H246.774V470.373ZM171.516 470.373H244.594V543.448H171.516V470.373ZM96.2575 470.373H169.336V543.448H96.2575L96.2575 470.373ZM96.2575 545.628V618.71H169.336V545.628H96.2575ZM171.516 545.628V618.71H244.594V545.628H171.516ZM246.774 545.628V618.71H319.861V545.628H246.774ZM322.041 545.628V618.71H395.119V545.628H322.041ZM397.299 545.628V618.71H470.377V545.628H397.299ZM472.557 545.628V618.71L545.636 618.71V545.628L472.557 545.628ZM547.816 545.628V618.71H620.887V545.628H547.816ZM623.067 545.628V618.71H696.153V545.628H623.067ZM698.333 545.628V618.71H771.411V545.628H698.333ZM773.591 545.628V618.71H846.663V545.628H773.591ZM848.843 545.628V618.71H921.928V545.628H848.843ZM848.843 620.89H921.928V693.969H848.843V620.89ZM773.591 620.89H846.663V693.969H773.591V620.89ZM698.333 620.89H771.411V693.969H698.333V620.89ZM623.067 620.89H696.153V693.969H623.067V620.89ZM547.816 620.89H620.887V693.969H547.816V620.89ZM472.557 620.89L545.636 620.89V693.969L472.557 693.969V620.89ZM397.299 620.89H470.377V693.969H397.299V620.89ZM322.041 620.89H395.119V693.969H322.041V620.89ZM246.774 620.89H319.861V693.969H246.774V620.89ZM171.516 620.89H244.594V693.969H171.516V620.89ZM96.2575 620.89H169.336V693.969H96.2575L96.2575 620.89ZM96.2575 696.149V769.231H169.336V696.149H96.2575ZM171.516 696.149V769.231H244.594V696.149H171.516ZM246.774 696.149V769.231H319.861V696.149H246.774ZM322.041 696.149V769.231H395.119V696.149H322.041ZM397.299 696.149V769.231H470.377V696.149H397.299ZM472.557 696.149V769.231H545.636V696.149H472.557ZM547.816 696.149V769.231H620.887V696.149H547.816ZM623.067 696.149V769.231H696.153V696.149H623.067ZM698.333 696.149V769.231H771.411V696.149H698.333ZM773.591 696.149V769.231H846.663V696.149H773.591ZM848.843 696.149V769.231H921.928V696.149H848.843ZM848.843 771.411H921.928V844.489H848.843V771.411ZM773.591 771.411H846.663V844.489H773.591V771.411ZM698.333 771.411H771.411V844.489H698.333V771.411ZM623.067 771.411H696.153V844.489H623.067V771.411ZM547.816 771.411H620.887V844.489H547.816V771.411ZM472.557 771.411L545.636 771.411V844.489L472.557 844.489V771.411ZM397.299 771.411H470.377V844.489H397.299V771.411ZM322.041 771.411H395.119V844.489H322.041V771.411ZM246.774 771.411H319.861V844.489H246.774V771.411ZM171.516 771.411H244.594V844.489H171.516V771.411ZM96.2575 771.411H169.336V844.489H96.2575V771.411ZM96.2575 846.669V919.748H169.336V846.669H96.2575ZM171.516 846.669V919.748H244.594V846.669H171.516ZM246.774 846.669V919.748H319.861V846.669H246.774ZM322.041 846.669V919.748H395.119V846.669H322.041ZM397.299 846.669V919.748H470.377V846.669H397.299ZM472.557 846.669V919.748L545.636 919.748V846.669H472.557ZM547.816 846.669V919.748H620.887V846.669H547.816ZM623.067 846.669V919.748H696.153V846.669H623.067ZM698.333 846.669V919.748H771.411V846.669H698.333ZM773.591 846.669V919.748H846.663V846.669H773.591ZM848.843 846.669V919.748H921.928V846.669H848.843Z" fill="url(#paint0_radial_72_15)"/>
<defs>
<radialGradient id="paint0_radial_72_15" cx="0" cy="0" r="1" gradientUnits="userSpaceOnUse" gradientTransform="translate(508 438.701) rotate(78.1319) scale(509.591 522.944)">
<stop stop-color="white" stop-opacity="0.55"/>
<stop offset="1" stop-color="white" stop-opacity="0"/>
</radialGradient>
</defs>
</svg>
