<svg width="458" height="58" viewBox="0 0 458 58" fill="none" xmlns="http://www.w3.org/2000/svg">
<g clip-path="url(#clip0_72_889)">
<path d="M72.3186 0.267773C76.5559 0.267773 80.7998 0.0961559 85.0306 0.300776C98.6371 0.960842 105.943 12.8618 102.235 25.6341C101.118 29.4691 98.6763 32.3602 95.2029 34.3404C92.3758 35.9575 92.3823 35.9839 94.2039 38.8024C97.0571 43.2117 99.9299 47.6077 102.79 52.0103C103.149 52.5582 103.547 53.0928 103.828 53.6803C104.892 55.8783 103.978 57.7265 101.582 57.8981C99.3096 58.0631 97.0179 57.9245 94.7393 57.9509C93.0613 57.9707 92.2778 56.842 91.5009 55.5879C88.3212 50.479 85.0306 45.4361 81.9424 40.2744C80.8977 38.5318 79.6703 37.8915 77.7181 37.9905C74.8976 38.1292 72.0639 38.1292 69.2434 38.0103C67.3043 37.9245 66.5273 38.512 66.5926 40.5978C66.7297 44.9872 66.6448 49.3833 66.6253 53.7727C66.6122 57.2975 65.9658 57.9179 62.3879 57.9707C57.7044 58.0455 55.3583 55.7133 55.3496 50.974C55.3496 44.4922 55.3496 38.0169 55.3561 31.5351C55.3627 27.2249 55.9307 26.6704 60.3247 26.6638C67.3892 26.6506 74.4536 26.7034 81.518 26.6176C83.3396 26.5978 85.233 26.3734 86.9697 25.8453C89.6467 25.0268 91.416 23.2381 91.6119 20.1754C91.8208 16.941 90.9655 14.1754 87.923 12.7892C86.1993 12.0037 84.1884 11.5747 82.295 11.5417C74.9041 11.4031 67.5132 11.4955 60.1223 11.4691C56.0547 11.4559 55.4084 10.776 55.3692 6.67041C55.3257 2.30958 57.4977 0.13356 61.8852 0.142361C65.3652 0.142361 68.8386 0.142361 72.3186 0.142361C72.3186 0.181965 72.3186 0.221568 72.3186 0.261172V0.267773Z" fill="#027EF0"/>
<path d="M16.8539 0.307375C21.0913 0.307375 25.3482 0.049949 29.566 0.36018C37.218 0.927837 43.2835 4.5516 45.993 11.9245C48.794 19.5483 48.0823 27.0863 42.3564 33.4427C38.9547 37.2183 34.4758 38.8948 29.5594 39.1523C24.6823 39.4097 19.7789 39.2843 14.8887 39.3569C12.042 39.3965 12.0094 39.4229 11.9833 42.3272C11.9441 46.281 11.9898 50.2348 11.9376 54.1886C11.8984 57.1787 11.1998 57.8783 8.28784 57.9641C6.76657 58.0037 5.23878 58.0235 3.72404 57.9179C1.62822 57.7661 0.733744 56.9476 0.714157 54.8354C0.642337 47.04 0.629279 39.2381 0.701099 31.4427C0.720686 28.9872 1.75227 28.182 4.57282 28.1688C11.5328 28.1292 18.4862 28.182 25.4461 28.149C26.8499 28.1424 28.2798 28.0566 29.6509 27.7793C33.96 26.9146 35.9383 24.413 35.9905 19.9509C36.0428 15.3767 33.9665 12.644 29.6182 11.7397C28.4626 11.5021 27.2416 11.4889 26.0534 11.4889C19.2044 11.4625 12.3554 11.4889 5.50647 11.4691C1.36706 11.4691 0.68804 10.7826 0.661924 6.76942C0.631456 2.30737 2.87527 0.089553 7.39336 0.115956C9.02562 0.129157 10.6579 0.129157 12.2836 0.135758C13.8049 0.135758 15.3261 0.135758 16.8474 0.135758C16.8474 0.188563 16.8474 0.247969 16.8474 0.300774L16.8539 0.307375Z" fill="#027EF0"/>
<path d="M280.301 28.9543C280.301 36.8619 280.301 44.7695 280.301 52.6705C280.301 56.7035 279.726 57.2909 275.828 57.3173C274.745 57.3239 273.654 57.3437 272.57 57.2909C269.874 57.1655 269.136 56.446 269.11 53.6672C269.058 48.1754 269.11 42.6837 269.077 37.1985C269.064 34.5055 269.025 34.4593 266.4 34.446C260.1 34.4196 253.793 34.4196 247.492 34.4526C244.757 34.4659 244.724 34.5187 244.704 37.4758C244.678 42.4196 244.711 47.3569 244.672 52.3008C244.665 53.3833 244.593 54.5121 244.287 55.5352C243.719 57.4427 242.034 57.4757 240.519 57.2777C238.188 56.9807 235.401 58.5385 233.67 55.7266C233.35 55.2117 233.305 54.4659 233.305 53.8256C233.285 44.8223 233.266 35.819 233.324 26.8091C233.344 23.9048 234.317 23.0467 237.425 23.0335C246.879 23.0005 256.333 23.0269 265.793 23.0137C269.064 23.0137 269.077 22.9939 269.09 19.5682C269.103 14.4064 269.071 9.24473 269.11 4.08302C269.13 0.927903 269.835 0.254637 272.956 0.135825C280.131 -0.134802 280.275 -0.0027891 280.281 7.19853C280.294 14.4461 280.281 21.6936 280.281 28.9411H280.314L280.301 28.9543Z" fill="#027EF0"/>
<path d="M193.862 0.327259C197.995 0.327259 202.141 0.069833 206.248 0.380064C213.913 0.960922 219.855 4.61109 222.531 12.0632C225.326 19.819 224.36 27.2447 218.451 33.4428C215.206 36.8421 210.995 38.3801 206.431 38.6309C201.658 38.8949 196.872 38.7827 192.087 38.8487C188.953 38.8883 188.933 38.9015 188.913 42.182C188.887 45.7002 188.913 49.2117 188.894 52.7299C188.874 56.7101 188.358 57.2117 184.304 57.2183C183.214 57.2183 182.123 57.2579 181.046 57.1853C178.78 57.0335 177.755 56.1952 177.729 53.9906C177.644 46.4131 177.638 38.8289 177.729 31.2513C177.762 28.6903 178.931 27.786 181.849 27.7662C188.483 27.7266 195.116 27.7662 201.743 27.7464C203.264 27.7464 204.799 27.7134 206.294 27.4824C210.283 26.8619 212.464 24.182 212.588 19.9378C212.718 15.6144 210.805 12.7299 206.986 11.7926C205.634 11.4626 204.185 11.4164 202.781 11.4098C196.259 11.3702 189.736 11.4098 183.214 11.39C178.428 11.3768 177.697 10.6243 177.69 5.91142C177.69 5.25135 177.664 4.59128 177.69 3.93122C177.821 1.11274 178.663 0.201846 181.47 0.155642C185.603 0.089635 189.736 0.13584 193.862 0.13584C193.862 0.201846 193.862 0.267853 193.862 0.333859V0.327259Z" fill="#027EF0"/>
<path d="M140.971 0.148926C154.401 0.148926 166.153 9.42945 169.059 22.3403C172.082 35.7661 165.814 49.1126 153.644 55.0664C152.593 55.5813 151.424 55.8321 150.307 56.2083C151.163 55.5483 151.985 54.8354 152.88 54.2347C161.133 48.71 164.502 38.9014 161.368 29.4228C158.273 20.0697 149.276 14.0895 139.358 14.809C129.911 15.4889 121.847 22.644 120.071 32.1291C118.426 40.9608 121.403 48.0829 128.337 53.5813C129.023 54.1225 129.761 54.5912 130.459 55.106C130.609 55.2182 130.701 55.4096 130.818 55.5615C130.616 55.6143 130.381 55.7595 130.218 55.7001C129.401 55.403 128.579 55.1126 127.808 54.71C116.063 48.6176 109.971 35.1588 113.079 22.2149C116.18 9.37005 127.821 0.155526 140.971 0.148926Z" fill="#027EF0"/>
<path d="M345.082 29.1656C345.245 20.1293 348.124 12.3471 354.862 6.23488C357.918 3.46261 361.509 1.69363 365.498 0.749736C368.305 0.0830699 369.539 1.05997 369.716 4.03686C369.761 4.80254 369.637 5.58802 369.742 6.3405C370.219 9.65403 368.906 11.4032 365.766 12.8091C358.878 15.8916 356.41 22.0831 356.547 29.2382C356.69 36.8817 359.413 43.2052 367.215 46.0237C369.011 46.6705 369.775 47.9049 369.729 49.7794C369.696 51.2052 369.775 52.6375 369.709 54.0633C369.566 57.1788 368.214 58.2019 365.263 57.3834C354.98 54.5055 348.816 47.5484 346.198 37.291C345.526 34.6639 345.434 31.8784 345.075 29.1722L345.082 29.1656Z" fill="#027EF0"/>
<path d="M424.605 43.6738C424.605 40.5979 424.435 37.5153 424.67 34.4592C424.795 32.8025 425.265 30.9609 426.166 29.6078C432.257 20.5319 438.545 11.5814 444.688 2.53846C445.851 0.828885 447.17 -0.0556028 449.265 0.109414C451.1 0.254628 452.967 0.0368064 454.802 0.188622C457.374 0.406443 458.354 2.30083 457.113 4.59786C456.441 5.84539 455.585 6.9939 454.776 8.16222C449.069 16.446 443.383 24.7431 437.631 32.9873C436.521 34.5781 435.992 36.182 436.031 38.1622C436.142 43.3173 436.103 48.479 436.057 53.6408C436.031 57.0797 435.221 57.8322 431.754 57.8784C430.56 57.8916 429.365 57.918 428.17 57.852C425.526 57.7002 424.684 56.8883 424.625 54.2084C424.546 50.6969 424.605 47.1853 424.605 43.6738Z" fill="#027EF0"/>
<path d="M155.446 42.9477C155.302 49.8058 152.058 53.918 147.063 56.8487C146.501 57.1787 145.659 57.0335 144.947 57.1127C145.339 56.6506 145.711 56.182 146.116 55.7398C148.454 53.1589 148.852 50.116 147.233 47.2579C145.816 44.7563 142.891 43.3437 140.025 43.7794C136.858 44.2612 134.508 46.5912 134.044 49.8784C133.698 52.3338 134.573 54.3866 136.421 56.0368C136.721 56.3008 136.923 56.6704 137.178 56.9939C136.714 57.0203 136.172 57.2249 135.794 57.0533C125.537 52.446 123.806 40.0698 131.282 32.8949C135.533 28.8157 141.716 27.7596 147.037 30.2942C152.593 32.9411 155.231 37.5549 155.44 42.9543L155.446 42.9477Z" fill="#027EF0"/>
<path d="M316.048 0.135791C321.806 0.135791 327.565 0.115989 333.323 0.142391C336.862 0.155593 337.495 0.82226 337.567 4.36681C337.704 11.4229 337.652 11.4757 330.581 11.4757C320.148 11.4757 309.721 11.4889 299.287 11.4757C295.004 11.4757 294.352 10.7959 294.306 6.53843C294.241 0.43282 294.515 0.142391 300.404 0.148992C305.621 0.148992 310.837 0.148992 316.048 0.148992V0.135791Z" fill="#027EF0"/>
<path d="M316.321 46.1094C321.969 46.1094 327.61 46.0896 333.258 46.1094C336.738 46.1226 337.502 46.8949 337.554 50.3008C337.628 54.9829 335.31 57.3217 330.6 57.3173C320.396 57.3173 310.191 57.3173 299.986 57.3173C299.117 57.3173 298.249 57.3437 297.381 57.2777C296.852 57.2381 296.179 57.2315 295.827 56.9213C293.13 54.5516 294.462 51.4163 294.521 48.6044C294.567 46.5648 296.297 46.0962 298.086 46.0962C304.164 46.1028 310.243 46.0962 316.328 46.0962L316.321 46.1094Z" fill="#027EF0"/>
<path d="M314.043 23.0334C319.364 23.0334 324.685 23.0004 330 23.0466C333.388 23.073 334.172 23.9179 334.224 27.3502C334.335 34.3931 334.309 34.4261 327.192 34.4327C317.745 34.4393 308.304 34.4459 298.856 34.4327C295.03 34.4327 294.371 33.7331 294.286 29.7925C294.149 23.3766 294.462 23.04 300.684 23.04C305.137 23.04 309.59 23.04 314.036 23.04L314.043 23.0334Z" fill="#027EF0"/>
<path d="M392.607 36.7629C394.004 36.7629 395.101 36.6507 396.165 36.7893C398.222 37.0533 399.26 38.5715 398.601 40.4922C395.31 50.083 387.599 56.1886 378.302 57.8322C375.788 58.2744 374.632 57.2843 374.339 54.7629C374.254 54.0038 374.306 53.2315 374.306 52.4658C374.306 47.7332 374.326 47.6144 378.752 46.2744C382.036 45.2777 384.759 43.3569 386.228 40.3734C387.736 37.3173 389.708 36.1028 392.607 36.7629Z" fill="#027EF0"/>
<path d="M393.09 21.4428C392.332 21.4428 391.569 21.39 390.818 21.456C389.107 21.5946 387.912 20.9609 387.168 19.3504C385.196 15.0929 381.847 12.5517 377.342 11.522C375.187 11.0335 374.299 9.62099 374.312 7.48898C374.319 6.17545 374.247 4.85531 374.345 3.54838C374.56 0.710099 375.794 -0.213993 378.772 0.41967C386.842 2.14904 393.07 6.47908 396.975 13.9444C397.53 15.0071 398.032 16.1094 398.444 17.2316C399.358 19.7266 398.372 21.2118 395.688 21.4164C394.827 21.4824 393.958 21.4296 393.09 21.4296V21.4494V21.4428Z" fill="#027EF0"/>
<path d="M418.566 20.1095C415.314 21.0204 413.049 19.1656 411.149 15.9973C408.955 12.3405 406.389 8.91478 403.947 5.41643C403.17 4.29432 402.485 3.20521 403.157 1.79267C403.901 0.248116 405.299 0.155707 406.761 0.0963009C411.588 -0.101719 415.382 1.79707 418.141 5.79267C420.133 8.67056 422.157 11.5286 424.115 14.4329C424.958 15.6871 425.957 16.9412 425.088 18.6508C424.187 20.4197 422.568 20.0501 421.086 20.1029C420.433 20.1227 419.78 20.1029 418.566 20.1029V20.1095Z" fill="#027EF0"/>
<path d="M244.652 10.1886C244.652 12.2744 244.75 14.3668 244.626 16.4526C244.476 19.0401 243.503 19.918 240.937 20.017C239.527 20.0698 238.11 20.0764 236.7 20.017C234.467 19.918 233.389 19.0401 233.331 16.8751C233.213 12.3734 233.207 7.86516 233.318 3.36351C233.37 1.11928 234.323 0.307402 236.634 0.168788C238.149 0.0763785 239.683 0.0763785 241.198 0.162187C243.614 0.2942 244.508 1.14569 244.632 3.60773C244.743 5.79915 244.659 8.00377 244.659 10.1952L244.652 10.1886Z" fill="#027EF0"/>
</g>
<defs>
<clipPath id="clip0_72_889">
<rect width="457" height="58" fill="white" transform="translate(0.648438 0.00390625)"/>
</clipPath>
</defs>
</svg>
