<svg width="458" height="58" viewBox="0 0 458 58" fill="none" xmlns="http://www.w3.org/2000/svg">
<g clip-path="url(#clip0_195_1770)">
<path d="M72.3166 0.264111C76.554 0.264111 80.7978 0.0924938 85.0287 0.297114C98.6352 0.95718 105.941 12.8582 102.233 25.6304C101.116 29.4654 98.6744 32.3565 95.2009 34.3367C92.3738 35.9539 92.3804 35.9803 94.202 38.7988C97.0551 43.208 99.9279 47.604 102.788 52.0067C103.147 52.5545 103.545 53.0892 103.826 53.6766C104.89 55.8747 103.976 57.7229 101.58 57.8945C99.3077 58.0595 97.016 57.9209 94.7373 57.9473C93.0594 57.9671 92.2759 56.8384 91.4989 55.5842C88.3193 50.4753 85.0287 45.4324 81.9404 40.2707C80.8958 38.5281 79.6683 37.8879 77.7161 37.9869C74.8956 38.1255 72.062 38.1255 69.2414 38.0067C67.3023 37.9209 66.5254 38.5083 66.5907 40.5941C66.7278 44.9836 66.6429 49.3796 66.6233 53.7691C66.6102 57.2938 65.9639 57.9143 62.386 57.9671C57.7025 58.0419 55.3564 55.7097 55.3477 50.9704C55.3477 44.4885 55.3477 38.0133 55.3542 31.5314C55.3607 27.2212 55.9287 26.6667 60.3228 26.6601C67.3872 26.6469 74.4516 26.6998 81.516 26.6139C83.3376 26.5941 85.2311 26.3697 86.9678 25.8417C89.6447 25.0232 91.4141 23.2344 91.6099 20.1717C91.8189 16.9374 90.9636 14.1717 87.921 12.7856C86.1974 12.0001 84.1864 11.571 82.293 11.538C74.9021 11.3994 67.5113 11.4918 60.1204 11.4654C56.0528 11.4522 55.4064 10.7724 55.3672 6.66675C55.3237 2.30592 57.4957 0.129898 61.8832 0.138698C65.3632 0.138698 68.8366 0.138698 72.3166 0.138698C72.3166 0.178302 72.3166 0.217906 72.3166 0.25751V0.264111Z" fill="#01497C"/>
<path d="M16.853 0.30298C21.0903 0.30298 25.3472 0.0455545 29.565 0.355786C37.217 0.923442 43.2825 4.5472 45.9921 11.9201C48.793 19.5439 48.0813 27.0819 42.3554 33.4383C38.9538 37.2139 34.4748 38.8904 29.5585 39.1479C24.6813 39.4053 19.778 39.2799 14.8877 39.3525C12.0411 39.3921 12.0084 39.4185 11.9823 42.3228C11.9431 46.2766 11.9888 50.2304 11.9366 54.1842C11.8974 57.1743 11.1988 57.8739 8.28686 57.9597C6.7656 57.9993 5.2378 58.0191 3.72307 57.9135C1.62725 57.7617 0.732767 56.9432 0.71318 54.831C0.641361 47.0357 0.628303 39.2337 0.700122 31.4383C0.719709 28.9828 1.7513 28.1776 4.57184 28.1644C11.5318 28.1248 18.4852 28.1776 25.4452 28.1446C26.8489 28.138 28.2788 28.0522 29.6499 27.7749C33.959 26.9102 35.9373 24.4086 35.9896 19.9465C36.0418 15.3723 33.9656 12.6396 29.6172 11.7353C28.4616 11.4977 27.2407 11.4845 26.0524 11.4845C19.2034 11.4581 12.3545 11.4845 5.50549 11.4647C1.36608 11.4647 0.687064 10.7782 0.660948 6.76503C0.630479 2.30298 2.87429 0.0851585 7.39239 0.111561C9.02464 0.124762 10.6569 0.124762 12.2826 0.131363C13.8039 0.131363 15.3252 0.131363 16.8464 0.131363C16.8464 0.184168 16.8464 0.243574 16.8464 0.29638L16.853 0.30298Z" fill="#01497C"/>
<path d="M280.301 28.9502C280.301 36.8577 280.301 44.7653 280.301 52.6663C280.301 56.6993 279.726 57.2868 275.828 57.3132C274.745 57.3198 273.654 57.3396 272.57 57.2868C269.874 57.1614 269.136 56.4419 269.11 53.663C269.058 48.1713 269.11 42.6795 269.077 37.1944C269.064 34.5013 269.025 34.4551 266.4 34.4419C260.1 34.4155 253.793 34.4155 247.492 34.4485C244.757 34.4617 244.724 34.5145 244.704 37.4716C244.678 42.4155 244.711 47.3528 244.672 52.2967C244.665 53.3792 244.593 54.5079 244.287 55.531C243.719 57.4386 242.034 57.4716 240.519 57.2736C238.188 56.9765 235.401 58.5343 233.67 55.7224C233.35 55.2076 233.305 54.4617 233.305 53.8214C233.285 44.8181 233.266 35.8148 233.324 26.8049C233.344 23.9006 234.317 23.0426 237.425 23.0294C246.879 22.9964 256.333 23.0228 265.793 23.0096C269.064 23.0096 269.077 22.9898 269.09 19.564C269.103 14.4023 269.071 9.24058 269.11 4.07887C269.13 0.923753 269.835 0.250486 272.956 0.131674C280.131 -0.138953 280.275 -0.00693949 280.281 7.19438C280.294 14.4419 280.281 21.6894 280.281 28.9369H280.314L280.301 28.9502Z" fill="#01497C"/>
<path d="M193.863 0.323352C197.996 0.323352 202.142 0.0659267 206.249 0.376158C213.914 0.957016 219.856 4.60718 222.532 12.0593C225.327 19.8151 224.361 27.2408 218.452 33.4389C215.207 36.8382 210.996 38.3762 206.432 38.627C201.659 38.891 196.873 38.7788 192.088 38.8448C188.954 38.8844 188.934 38.8976 188.914 42.1781C188.888 45.6963 188.914 49.2078 188.895 52.726C188.875 56.7062 188.359 57.2078 184.305 57.2144C183.215 57.2144 182.124 57.254 181.047 57.1814C178.781 57.0296 177.756 56.1913 177.73 53.9867C177.645 46.4092 177.639 38.825 177.73 31.2474C177.763 28.6864 178.932 27.7821 181.85 27.7623C188.484 27.7227 195.117 27.7623 201.744 27.7425C203.265 27.7425 204.8 27.7095 206.295 27.4785C210.284 26.858 212.465 24.1781 212.589 19.9339C212.719 15.6105 210.806 12.726 206.987 11.7887C205.635 11.4587 204.186 11.4125 202.782 11.4059C196.26 11.3663 189.737 11.4059 183.215 11.3861C178.429 11.3729 177.698 10.6204 177.691 5.90751C177.691 5.24744 177.665 4.58738 177.691 3.92731C177.822 1.10883 178.664 0.19794 181.471 0.151735C185.604 0.0857287 189.737 0.131933 193.863 0.131933C193.863 0.19794 193.863 0.263947 193.863 0.329953V0.323352Z" fill="#01497C"/>
<path d="M140.971 0.144531C154.401 0.144531 166.153 9.42506 169.059 22.3359C172.082 35.7617 165.814 49.1082 153.644 55.062C152.593 55.5769 151.424 55.8277 150.307 56.2039C151.163 55.5439 151.985 54.831 152.88 54.2303C161.133 48.7056 164.502 38.897 161.368 29.4185C158.273 20.0653 149.276 14.0851 139.358 14.8046C129.911 15.4845 121.847 22.6396 120.071 32.1247C118.426 40.9564 121.403 48.0785 128.337 53.5769C129.023 54.1181 129.761 54.5868 130.459 55.1016C130.609 55.2138 130.701 55.4052 130.818 55.5571C130.616 55.6099 130.381 55.7551 130.218 55.6957C129.401 55.3986 128.579 55.1082 127.808 54.7056C116.063 48.6132 109.971 35.1544 113.079 22.2105C116.18 9.36565 127.821 0.151132 140.971 0.144531Z" fill="#01497C"/>
<path d="M345.081 29.1617C345.244 20.1254 348.123 12.3432 354.861 6.23098C357.917 3.4587 361.508 1.68972 365.497 0.74583C368.305 0.0791636 369.539 1.05606 369.715 4.03296C369.761 4.79864 369.636 5.58411 369.741 6.33659C370.218 9.65012 368.905 11.3993 365.765 12.8052C358.877 15.8877 356.409 22.0792 356.546 29.2343C356.689 36.8778 359.412 43.2013 367.214 46.0198C369.01 46.6666 369.774 47.9009 369.728 49.7755C369.695 51.2013 369.774 52.6336 369.708 54.0594C369.565 57.1749 368.213 58.198 365.262 57.3795C354.979 54.5016 348.815 47.5445 346.197 37.2871C345.525 34.66 345.433 31.8745 345.074 29.1683L345.081 29.1617Z" fill="#01497C"/>
<path d="M424.606 43.6699C424.606 40.594 424.436 37.5114 424.671 34.4553C424.795 32.7986 425.266 30.957 426.167 29.6039C432.258 20.5279 438.546 11.5775 444.689 2.53455C445.852 0.824979 447.17 -0.059509 449.266 0.105507C451.101 0.250722 452.968 0.0329002 454.803 0.184715C457.375 0.402537 458.355 2.29693 457.114 4.59396C456.442 5.84148 455.586 6.98999 454.777 8.15831C449.07 16.4421 443.384 24.7392 437.632 32.9834C436.522 34.5742 435.993 36.1781 436.032 38.1583C436.143 43.3134 436.104 48.4751 436.058 53.6369C436.032 57.0758 435.222 57.8283 431.755 57.8745C430.561 57.8877 429.366 57.9141 428.171 57.8481C425.527 57.6963 424.684 56.8844 424.626 54.2045C424.547 50.693 424.606 47.1814 424.606 43.6699Z" fill="#01497C"/>
<path d="M155.445 42.9433C155.302 49.8014 152.057 53.9136 147.062 56.8443C146.5 57.1743 145.658 57.0291 144.946 57.1083C145.338 56.6462 145.71 56.1776 146.115 55.7354C148.453 53.1545 148.851 50.1116 147.232 47.2535C145.815 44.7519 142.89 43.3393 140.024 43.775C136.857 44.2568 134.507 46.5868 134.043 49.874C133.697 52.3294 134.572 54.3822 136.42 56.0324C136.72 56.2964 136.922 56.666 137.177 56.9895C136.713 57.0159 136.171 57.2205 135.793 57.0489C125.536 52.4416 123.805 40.0654 131.281 32.8905C135.532 28.8113 141.715 27.7552 147.036 30.2898C152.592 32.9367 155.23 37.5505 155.439 42.9499L155.445 42.9433Z" fill="#01497C"/>
<path d="M316.046 0.132129C321.804 0.132129 327.563 0.112327 333.321 0.138729C336.86 0.151931 337.493 0.818597 337.565 4.36315C337.702 11.4193 337.65 11.4721 330.579 11.4721C320.146 11.4721 309.719 11.4853 299.286 11.4721C295.002 11.4721 294.35 10.7922 294.304 6.53477C294.239 0.429158 294.513 0.138729 300.402 0.14533C305.619 0.14533 310.835 0.14533 316.046 0.14533V0.132129Z" fill="#01497C"/>
<path d="M316.321 46.105C321.969 46.105 327.61 46.0852 333.258 46.105C336.738 46.1182 337.502 46.8905 337.554 50.2964C337.628 54.9785 335.31 57.3173 330.6 57.3129C320.396 57.3129 310.191 57.3129 299.986 57.3129C299.117 57.3129 298.249 57.3393 297.381 57.2733C296.852 57.2337 296.179 57.2271 295.827 56.9169C293.13 54.5472 294.462 51.4119 294.521 48.6C294.567 46.5604 296.297 46.0918 298.086 46.0918C304.164 46.0984 310.243 46.0918 316.328 46.0918L316.321 46.105Z" fill="#01497C"/>
<path d="M314.041 23.029C319.362 23.029 324.683 22.996 329.998 23.0422C333.386 23.0686 334.17 23.9135 334.222 27.3458C334.333 34.3887 334.307 34.4217 327.19 34.4283C317.743 34.4349 308.302 34.4415 298.854 34.4283C295.028 34.4283 294.369 33.7287 294.284 29.7881C294.147 23.3722 294.46 23.0356 300.682 23.0356C305.135 23.0356 309.588 23.0356 314.034 23.0356L314.041 23.029Z" fill="#01497C"/>
<path d="M392.606 36.7585C394.003 36.7585 395.1 36.6463 396.164 36.7849C398.221 37.0489 399.259 38.5671 398.6 40.4879C395.309 50.0786 387.598 56.1842 378.301 57.8278C375.787 58.27 374.631 57.2799 374.338 54.7585C374.253 53.9994 374.305 53.2271 374.305 52.4615C374.305 47.7288 374.325 47.61 378.751 46.27C382.035 45.2733 384.758 43.3525 386.227 40.369C387.735 37.3129 389.707 36.0984 392.606 36.7585Z" fill="#01497C"/>
<path d="M393.09 21.4381C392.332 21.4381 391.569 21.3853 390.818 21.4513C389.107 21.59 387.912 20.9563 387.168 19.3457C385.196 15.0883 381.847 12.547 377.342 11.5173C375.187 11.0289 374.299 9.61635 374.312 7.48434C374.319 6.17081 374.247 4.85068 374.345 3.54374C374.56 0.705461 375.794 -0.218632 378.772 0.415032C386.842 2.1444 393.07 6.47444 396.975 13.9398C397.53 15.0025 398.032 16.1048 398.444 17.2269C399.358 19.722 398.372 21.2071 395.688 21.4117C394.827 21.4777 393.958 21.4249 393.09 21.4249V21.4447V21.4381Z" fill="#01497C"/>
<path d="M418.565 20.1053C415.313 21.0162 413.048 19.1615 411.148 15.9931C408.954 12.3364 406.388 8.91063 403.946 5.41228C403.169 4.29017 402.484 3.20106 403.156 1.78852C403.901 0.243966 405.298 0.151556 406.76 0.0921505C411.587 -0.105869 415.381 1.79292 418.14 5.78852C420.132 8.66641 422.156 11.5245 424.114 14.4288C424.957 15.6829 425.956 16.937 425.087 18.6466C424.186 20.4156 422.567 20.0459 421.085 20.0987C420.432 20.1186 419.779 20.0987 418.565 20.0987V20.1053Z" fill="#01497C"/>
<path d="M244.652 10.1847C244.652 12.2705 244.75 14.3629 244.626 16.4487C244.476 19.0362 243.503 19.9141 240.937 20.0131C239.527 20.0659 238.11 20.0725 236.7 20.0131C234.467 19.9141 233.389 19.0362 233.331 16.8712C233.213 12.3695 233.207 7.86125 233.318 3.3596C233.37 1.11538 234.323 0.303495 236.634 0.164881C238.149 0.0724723 239.683 0.0724723 241.198 0.158281C243.614 0.290294 244.508 1.14178 244.632 3.60383C244.743 5.79524 244.659 7.99987 244.659 10.1913L244.652 10.1847Z" fill="#01497C"/>
</g>
<defs>
<clipPath id="clip0_195_1770">
<rect width="457" height="58" fill="white" transform="translate(0.648438)"/>
</clipPath>
</defs>
</svg>
