<svg width="395" height="72" viewBox="0 0 395 72" fill="none" xmlns="http://www.w3.org/2000/svg">
<path d="M143.734 17.173C146.497 17.173 149.264 17.0606 152.023 17.1946C160.896 17.6271 165.66 25.4243 163.242 33.7923C162.514 36.3049 160.921 38.1991 158.656 39.4964C156.813 40.556 156.817 40.5733 158.005 42.4198C159.866 45.3087 161.739 48.1888 163.604 51.0733C163.838 51.4323 164.097 51.7825 164.28 52.1674C164.974 53.6075 164.378 54.8184 162.816 54.9308C161.334 55.0389 159.84 54.9481 158.354 54.9654C157.26 54.9784 156.749 54.2389 156.242 53.4172C154.169 50.07 152.023 46.766 150.01 43.3842C149.328 42.2425 148.528 41.8231 147.255 41.8879C145.416 41.9787 143.568 41.9787 141.729 41.9009C140.464 41.8447 139.958 42.2296 140 43.5961C140.09 46.472 140.034 49.3521 140.022 52.228C140.013 54.5373 139.592 54.9438 137.258 54.9784C134.204 55.0274 132.675 53.4994 132.669 50.3944C132.669 46.1476 132.669 41.9052 132.673 37.6585C132.677 34.8345 133.048 34.4713 135.913 34.467C140.52 34.4583 145.126 34.4929 149.733 34.4367C150.921 34.4237 152.155 34.2767 153.288 33.9307C155.033 33.3945 156.187 32.2225 156.315 30.2159C156.451 28.0969 155.893 26.2849 153.909 25.3767C152.785 24.8621 151.474 24.581 150.239 24.5594C145.42 24.4686 140.601 24.5291 135.781 24.5118C133.129 24.5032 132.707 24.0577 132.682 21.3678C132.653 18.5107 134.07 17.0851 136.931 17.0908C139.2 17.0908 141.465 17.0908 143.734 17.0908C143.734 17.1168 143.734 17.1427 143.734 17.1687V17.173Z" fill="white"/>
<path d="M107.567 17.1988C110.33 17.1988 113.106 17.0301 115.856 17.2334C120.846 17.6053 124.801 19.9795 126.568 24.8101C128.394 29.8049 127.93 34.7436 124.197 38.9081C121.978 41.3818 119.058 42.4802 115.852 42.6489C112.672 42.8176 109.474 42.7354 106.286 42.783C104.429 42.8089 104.408 42.8262 104.391 44.729C104.365 47.3194 104.395 49.9099 104.361 52.5003C104.336 54.4593 103.88 54.9177 101.981 54.9739C100.989 54.9999 99.993 55.0128 99.0053 54.9437C97.6386 54.8442 97.0554 54.3079 97.0426 52.9241C96.9958 47.8168 96.9873 42.7051 97.0341 37.5978C97.0469 35.9891 97.7195 35.4615 99.5588 35.4528C104.097 35.4269 108.631 35.4615 113.17 35.4398C114.085 35.4355 115.018 35.3793 115.912 35.1977C118.722 34.6312 120.012 32.9921 120.046 30.0687C120.08 27.0718 118.726 25.2814 115.89 24.689C115.137 24.5333 114.341 24.5246 113.566 24.5246C109.1 24.5073 104.634 24.5246 100.168 24.5117C97.4683 24.5117 97.0256 24.0619 97.0085 21.4326C96.9887 18.5092 98.4518 17.0561 101.398 17.0734C102.462 17.082 103.527 17.082 104.587 17.0864C105.579 17.0864 106.571 17.0864 107.563 17.0864C107.563 17.121 107.563 17.1599 107.563 17.1945L107.567 17.1988Z" fill="white"/>
<path d="M279.355 35.9674C279.355 41.1482 279.355 46.329 279.355 51.5056C279.355 54.1479 278.98 54.5328 276.439 54.5501C275.732 54.5544 275.021 54.5674 274.314 54.5328C272.556 54.4506 272.075 53.9792 272.058 52.1586C272.024 48.5605 272.058 44.9625 272.037 41.3688C272.028 39.6043 272.003 39.5741 270.291 39.5654C266.183 39.5481 262.07 39.5481 257.961 39.5697C256.178 39.5784 256.156 39.613 256.144 41.5504C256.127 44.7895 256.148 48.0243 256.122 51.2634C256.118 51.9726 256.071 52.7121 255.871 53.3824C255.501 54.6322 254.402 54.6538 253.415 54.5241C251.895 54.3295 250.077 55.3501 248.948 53.5078C248.74 53.1705 248.71 52.6818 248.71 52.2624C248.697 46.3636 248.684 40.4649 248.723 34.5619C248.736 32.6591 249.37 32.0969 251.396 32.0882C257.561 32.0666 263.726 32.0839 269.895 32.0753C272.028 32.0753 272.037 32.0623 272.045 29.8178C272.054 26.436 272.032 23.0542 272.058 19.6724C272.071 17.6053 272.53 17.1641 274.566 17.0863C279.244 16.909 279.338 16.9955 279.342 21.7136C279.351 26.462 279.342 31.2103 279.342 35.9587H279.364L279.355 35.9674Z" fill="white"/>
<path d="M222.991 17.2119C225.685 17.2119 228.389 17.0432 231.067 17.2465C236.065 17.627 239.939 20.0185 241.685 24.901C243.507 29.9823 242.877 34.8475 239.024 38.9083C236.908 41.1354 234.162 42.143 231.186 42.3074C228.074 42.4803 224.953 42.4068 221.832 42.4501C219.789 42.476 219.776 42.4847 219.763 44.634C219.746 46.939 219.763 49.2397 219.751 51.5446C219.738 54.1524 219.401 54.481 216.758 54.4854C216.047 54.4854 215.336 54.5113 214.633 54.4637C213.156 54.3643 212.487 53.815 212.47 52.3706C212.415 47.406 212.411 42.4371 212.47 37.4725C212.492 35.7946 213.254 35.2021 215.157 35.1891C219.482 35.1632 223.808 35.1891 228.129 35.1761C229.121 35.1761 230.122 35.1545 231.097 35.0032C233.698 34.5967 235.12 32.8409 235.201 30.0602C235.286 27.2276 234.039 25.3378 231.548 24.7237C230.667 24.5074 229.722 24.4772 228.806 24.4728C224.553 24.4469 220.3 24.4728 216.047 24.4599C212.926 24.4512 212.449 23.9582 212.445 20.8705C212.445 20.438 212.428 20.0056 212.445 19.5731C212.53 17.7265 213.079 17.1297 214.91 17.0994C217.605 17.0562 220.3 17.0865 222.991 17.0865C222.991 17.1297 222.991 17.173 222.991 17.2162V17.2119Z" fill="white"/>
<path d="M188.501 17.0947C197.259 17.0947 204.922 23.1751 206.817 31.6339C208.788 40.4301 204.701 49.1744 196.765 53.0751C196.079 53.4125 195.317 53.5768 194.589 53.8233C195.147 53.3908 195.683 52.9238 196.267 52.5303C201.648 48.9106 203.845 42.4843 201.801 36.2742C199.783 30.1463 193.917 26.2282 187.45 26.6996C181.289 27.145 176.031 31.8329 174.873 38.0473C173.8 43.8335 175.742 48.4998 180.263 52.1021C180.71 52.4567 181.191 52.7638 181.647 53.1011C181.745 53.1746 181.804 53.3 181.881 53.3995C181.749 53.4341 181.596 53.5292 181.489 53.4903C180.957 53.2957 180.42 53.1054 179.918 52.8416C172.259 48.85 168.287 40.0322 170.313 31.5518C172.336 23.1362 179.927 17.0991 188.501 17.0947Z" fill="white"/>
<path d="M321.597 36.1057C321.703 30.1854 323.581 25.0867 327.975 21.0821C329.967 19.2658 332.309 18.1068 334.91 17.4884C336.741 17.0516 337.545 17.6917 337.66 19.642C337.69 20.1437 337.609 20.6583 337.677 21.1513C337.988 23.3223 337.132 24.4683 335.085 25.3894C330.593 27.409 328.984 31.4654 329.073 36.1533C329.167 41.1611 330.942 45.304 336.03 47.1506C337.201 47.5744 337.699 48.3831 337.669 49.6113C337.648 50.5454 337.699 51.4839 337.656 52.418C337.562 54.4592 336.681 55.1295 334.757 54.5932C328.051 52.7077 324.032 48.1496 322.325 41.4292C321.887 39.7081 321.827 37.8831 321.593 36.11L321.597 36.1057Z" fill="white"/>
<path d="M373.453 45.6116C373.453 43.5964 373.342 41.5768 373.495 39.5745C373.576 38.4891 373.883 37.2825 374.47 36.396C378.442 30.4497 382.542 24.5856 386.549 18.6609C387.306 17.5408 388.166 16.9613 389.533 17.0695C390.729 17.1646 391.947 17.0219 393.143 17.1214C394.821 17.2641 395.459 18.5052 394.651 20.0102C394.212 20.8275 393.654 21.58 393.126 22.3454C389.405 27.7728 385.697 33.2088 381.946 38.6101C381.223 39.6524 380.878 40.7032 380.903 42.0006C380.976 45.3781 380.95 48.7599 380.92 52.1417C380.903 54.3948 380.375 54.8878 378.115 54.9181C377.335 54.9268 376.556 54.944 375.777 54.9008C374.053 54.8013 373.504 54.2694 373.465 52.5136C373.414 50.213 373.453 47.9123 373.453 45.6116Z" fill="white"/>
<path d="M197.94 45.1357C197.846 49.6289 195.73 52.3231 192.473 54.2432C192.107 54.4594 191.558 54.3643 191.094 54.4162C191.349 54.1135 191.592 53.8064 191.856 53.5167C193.38 51.8258 193.64 49.8321 192.584 47.9596C191.66 46.3206 189.753 45.3951 187.884 45.6806C185.819 45.9962 184.286 47.5228 183.984 49.6765C183.758 51.2852 184.329 52.6301 185.533 53.7113C185.729 53.8843 185.861 54.1264 186.027 54.3383C185.725 54.3556 185.372 54.4897 185.125 54.3773C178.436 51.3587 177.308 43.2501 182.183 38.5493C184.954 35.8768 188.986 35.1848 192.456 36.8455C196.079 38.5796 197.799 41.6025 197.935 45.14L197.94 45.1357Z" fill="white"/>
<path d="M302.664 17.0867C306.419 17.0867 310.174 17.0737 313.929 17.091C316.237 17.0997 316.65 17.5365 316.697 19.8588C316.786 24.4817 316.752 24.5163 312.141 24.5163C305.338 24.5163 298.539 24.525 291.735 24.5163C288.943 24.5163 288.517 24.0709 288.487 21.2815C288.444 17.2813 288.623 17.091 292.463 17.0954C295.865 17.0954 299.267 17.0954 302.664 17.0954V17.0867Z" fill="white"/>
<path d="M302.844 47.2069C306.526 47.2069 310.205 47.1939 313.887 47.2069C316.157 47.2155 316.655 47.7215 316.689 49.953C316.737 53.0206 315.226 54.5529 312.155 54.55C305.5 54.55 298.846 54.55 292.191 54.55C291.625 54.55 291.059 54.5673 290.493 54.5241C290.148 54.4981 289.709 54.4938 289.479 54.2905C287.721 52.738 288.59 50.6838 288.628 48.8416C288.658 47.5053 289.786 47.1982 290.952 47.1982C294.916 47.2026 298.88 47.1982 302.848 47.1982L302.844 47.2069Z" fill="white"/>
<path d="M301.357 32.0885C304.827 32.0885 308.297 32.0669 311.763 32.0972C313.972 32.1145 314.483 32.668 314.517 34.9168C314.59 39.5311 314.573 39.5527 309.932 39.5571C303.771 39.5614 297.615 39.5657 291.455 39.5571C288.96 39.5571 288.53 39.0987 288.474 36.5169C288.385 32.3134 288.589 32.0929 292.647 32.0929C295.55 32.0929 298.454 32.0929 301.353 32.0929L301.357 32.0885Z" fill="white"/>
<path d="M352.588 41.0831C353.499 41.0831 354.214 41.0096 354.908 41.1004C356.249 41.2734 356.926 42.268 356.496 43.5265C354.35 49.8101 349.322 53.8103 343.259 54.8871C341.62 55.1768 340.867 54.5282 340.675 52.8762C340.62 52.3789 340.654 51.8729 340.654 51.3712C340.654 48.2705 340.667 48.1927 343.553 47.3148C345.695 46.6618 347.47 45.4033 348.428 43.4486C349.411 41.4463 350.697 40.6506 352.588 41.0831Z" fill="white"/>
<path d="M352.903 31.046C352.409 31.046 351.911 31.0114 351.421 31.0546C350.305 31.1454 349.526 30.7303 349.041 29.6751C347.755 26.8857 345.571 25.2208 342.634 24.5461C341.229 24.2261 340.65 23.3007 340.658 21.9038C340.662 21.0432 340.616 20.1783 340.679 19.3221C340.82 17.4625 341.625 16.8571 343.566 17.2722C348.828 18.4053 352.89 21.2422 355.436 26.1333C355.798 26.8295 356.125 27.5517 356.394 28.2869C356.99 29.9216 356.347 30.8946 354.597 31.0287C354.035 31.0719 353.469 31.0373 352.903 31.0373V31.0503V31.046Z" fill="white"/>
<path d="M369.515 30.1721C367.395 30.7689 365.917 29.5537 364.678 27.4779C363.248 25.082 361.575 22.8376 359.982 20.5456C359.476 19.8104 359.029 19.0968 359.467 18.1714C359.953 17.1594 360.864 17.0989 361.817 17.06C364.965 16.9302 367.439 18.1743 369.238 20.7921C370.537 22.6776 371.857 24.5501 373.134 26.4529C373.683 27.2746 374.334 28.0963 373.768 29.2163C373.181 30.3753 372.125 30.1331 371.158 30.1677C370.733 30.1807 370.307 30.1677 369.515 30.1677V30.1721Z" fill="white"/>
<path d="M256.11 23.6722C256.11 25.0387 256.174 26.4096 256.093 27.7762C255.995 29.4714 255.36 30.0466 253.687 30.1115C252.768 30.1461 251.844 30.1504 250.924 30.1115C249.468 30.0466 248.766 29.4714 248.727 28.053C248.651 25.1036 248.646 22.1499 248.719 19.2006C248.753 17.7302 249.374 17.1983 250.882 17.1075C251.869 17.0469 252.87 17.0469 253.857 17.1032C255.433 17.1897 256.016 17.7475 256.097 19.3606C256.169 20.7963 256.114 22.2408 256.114 23.6765L256.11 23.6722Z" fill="white"/>
<path d="M38.9252 6C52.93 6 65.1851 15.7673 68.2148 29.3555C71.3671 43.4855 64.8311 57.5321 52.1403 63.7982C51.0441 64.34 49.8254 64.604 48.6612 65C49.5531 64.3053 50.4109 63.555 51.3437 62.9229C59.9495 57.1083 63.4626 46.7852 60.1946 36.8095C56.9674 26.9657 47.5855 20.6718 37.2436 21.4291C27.3918 22.1446 18.9835 29.675 17.1316 39.6577C15.4159 48.9527 18.5205 56.4484 25.751 62.2351C26.4659 62.8048 27.2353 63.298 27.9638 63.8399C28.1203 63.958 28.2157 64.1594 28.3382 64.3192C28.1271 64.3748 27.882 64.5276 27.7118 64.4651C26.8608 64.1525 26.0029 63.8468 25.1995 63.4231C12.9513 57.0111 6.59909 42.8463 9.83987 29.2235C13.0738 15.7048 25.2132 6.00695 38.9252 6Z" fill="white"/>
<path d="M54 50.9191C53.8502 58.2162 50.4658 62.5917 45.2563 65.71C44.6707 66.0612 43.7922 65.9067 43.05 65.991C43.4586 65.4993 43.8467 65.0007 44.2689 64.5301C46.7068 61.784 47.1222 58.5463 45.4334 55.5053C43.9557 52.8434 40.9049 51.3405 37.9155 51.804C34.6128 52.3167 32.1613 54.7959 31.6778 58.2935C31.3169 60.9061 32.2294 63.0904 34.1565 64.8462C34.4698 65.1271 34.6809 65.5204 34.9464 65.8645C34.463 65.8926 33.8977 66.1104 33.5028 65.9277C22.8047 61.0255 21.0002 47.8569 28.7973 40.2227C33.2304 35.8823 39.6792 34.7586 45.2291 37.4555C51.0242 40.2718 53.7753 45.1811 53.9932 50.9261L54 50.9191Z" fill="white"/>
</svg>
