<svg width="53" height="52" viewBox="0 0 53 52" fill="none" xmlns="http://www.w3.org/2000/svg">
<g clip-path="url(#clip0_582_550)">
<path d="M53 38.8041C53 39.089 52.9909 39.7034 52.9728 40.1842C52.9274 41.3507 52.8366 42.8555 52.6914 43.5411C52.4736 44.574 52.156 45.5445 51.7295 46.3548C51.2303 47.3164 50.595 48.1712 49.8327 48.9103C49.0794 49.6493 48.2082 50.2726 47.2281 50.7623C46.4022 51.1808 45.4039 51.4925 44.3421 51.7062C43.6524 51.8397 42.1277 51.9377 40.9479 51.9733C40.4579 51.9911 39.8317 52 39.5413 52H13.4406C13.1502 52 12.524 51.9911 12.0339 51.9733C10.845 51.9288 9.3113 51.8397 8.6125 51.6973C7.55976 51.4836 6.57055 51.1719 5.74469 50.7534C4.76455 50.2637 3.89332 49.6404 3.14007 48.8925C2.38681 48.1534 1.75154 47.2986 1.2524 46.337C0.825856 45.5267 0.508219 44.5473 0.290411 43.5055C0.154281 42.8288 0.0544521 41.3329 0.0181507 40.1753C0.00907534 39.7034 0 39.089 0 38.8041V13.1959C0 12.911 0.00907534 12.2966 0.027226 11.8158C0.0726027 10.6493 0.163356 9.14452 0.308562 8.4589C0.52637 7.42603 0.844007 6.45548 1.27055 5.64521C1.76969 4.68356 2.40497 3.82877 3.15822 3.08973C3.91147 2.35069 4.78271 1.7274 5.76284 1.23767C6.5887 0.819178 7.58699 0.507534 8.6488 0.293836C9.33853 0.160274 10.8632 0.0623288 12.043 0.0267123C12.533 0.00890411 13.1592 0 13.4497 0H39.5503C39.8408 0 40.4669 0.00890411 40.957 0.0267123C42.1459 0.0712329 43.6796 0.160274 44.3784 0.30274C45.4312 0.516438 46.4204 0.828082 47.2462 1.24658C48.2264 1.7363 49.0976 2.35959 49.8509 3.10753C50.6041 3.84658 51.2394 4.70137 51.7385 5.66301C52.1651 6.47329 52.4827 7.45274 52.7005 8.49452C52.8366 9.17123 52.9365 10.6671 52.9728 11.8247C52.9909 12.3055 53 12.9199 53 13.2048V38.8041Z" fill="url(#paint0_linear_582_550)"/>
<path fill-rule="evenodd" clip-rule="evenodd" d="M40.4396 12.4481C36.873 8.94879 32.1266 7.0166 27.0716 7.0166C16.6531 7.0166 8.18582 15.333 8.17674 25.5461C8.17674 28.8139 9.04797 32.0015 10.6997 34.8063L8.02246 44.4139L18.0416 41.8406C20.8005 43.3187 23.9043 44.0933 27.0716 44.0933H27.0807C37.4901 44.0933 45.9665 35.7769 45.9755 25.5639C45.9755 20.6043 44.0062 15.9474 40.4396 12.4481ZM27.0807 40.9591C24.2582 40.9591 21.4903 40.2111 19.0853 38.8132L18.5136 38.4837L12.5692 40.0152L14.1574 34.3344L13.7853 33.7556C12.2153 31.307 11.3803 28.4666 11.3803 25.555C11.3803 17.0604 18.4319 10.1508 27.0898 10.1508C31.2826 10.1508 35.2303 11.7536 38.1889 14.6652C41.1565 17.5769 42.7901 21.4502 42.781 25.5639C42.7719 34.0495 35.7295 40.9591 27.0807 40.9591ZM35.6932 29.4282C35.2213 29.1967 32.898 28.0748 32.4714 27.9235C32.0358 27.7721 31.7273 27.6919 31.4096 28.155C31.092 28.618 30.1935 29.6597 29.9122 29.9714C29.6399 30.283 29.3586 30.3187 28.8867 30.0871C28.4148 29.8556 26.8901 29.3659 25.0932 27.7899C23.6865 26.5611 22.7427 25.0474 22.4704 24.5844C22.1981 24.1214 22.4432 23.8721 22.6791 23.6406C22.8879 23.4358 23.1511 23.0974 23.387 22.8303C23.623 22.5632 23.7047 22.3673 23.8589 22.0556C24.0132 21.744 23.9406 21.4769 23.8226 21.2454C23.7047 21.0139 22.7608 18.7344 22.3706 17.8084C21.9894 16.9091 21.5992 17.0248 21.3088 17.0159C21.0365 16.9981 20.7189 16.9981 20.4012 16.9981C20.0836 16.9981 19.5754 17.1139 19.1398 17.5769C18.7041 18.0399 17.488 19.1618 17.488 21.4413C17.488 23.7207 19.1761 25.92 19.412 26.2317C19.648 26.5433 22.7427 31.218 27.48 33.2214C28.6053 33.7022 29.4856 33.9871 30.1754 34.2008C31.3098 34.557 32.3353 34.5036 33.1521 34.3878C34.0596 34.2543 35.9473 33.2659 36.3375 32.1885C36.7278 31.1111 36.7278 30.1762 36.6098 29.9892C36.4737 29.7755 36.1651 29.6597 35.6932 29.4282Z" fill="#FAFAFA"/>
</g>
<defs>
<linearGradient id="paint0_linear_582_550" x1="26.502" y1="52.004" x2="26.502" y2="0" gradientUnits="userSpaceOnUse">
<stop stop-color="#25CF43"/>
<stop offset="1" stop-color="#61FD7D"/>
</linearGradient>
<clipPath id="clip0_582_550">
<rect width="53" height="52" fill="white"/>
</clipPath>
</defs>
</svg>
